<svg width="11" height="10" viewBox="0 0 11 10" fill="none" xmlns="http://www.w3.org/2000/svg">
<path d="M10.5 4.55C10.5 4.31131 10.4042 4.08239 10.2337 3.9136C10.0632 3.74482 9.83202 3.65 9.59091 3.65H6.71818L7.15455 1.5935C7.16364 1.5485 7.16818 1.499 7.16818 1.4495C7.16818 1.265 7.09091 1.094 6.96818 0.9725L6.48636 0.5L3.49545 3.461C3.32727 3.6275 3.22727 3.8525 3.22727 4.1V8.6C3.22727 8.83869 3.32305 9.06761 3.49354 9.2364C3.66403 9.40518 3.89526 9.5 4.13636 9.5H8.22727C8.60455 9.5 8.92727 9.275 9.06364 8.951L10.4364 5.7785C10.4773 5.675 10.5 5.567 10.5 5.45V4.55ZM0.5 9.5H2.31818V4.1H0.5V9.5Z" fill="white" fill-opacity="0.75"/>
</svg>
